<mxfile host="app.diagrams.net" agent="Mozilla/5.0 (Macintosh; Intel Mac OS X 10_15_7) AppleWebKit/537.36 (KHTML, like Gecko) Chrome/133.0.0.0 Safari/537.36" version="26.0.16" pages="2">
  <diagram name="Página-1" id="tX-0k9d4C4hPjbpkWEkV">
    <mxGraphModel dx="1837" dy="783" grid="1" gridSize="10" guides="1" tooltips="1" connect="1" arrows="1" fold="1" page="1" pageScale="1" pageWidth="850" pageHeight="1100" math="0" shadow="0">
      <root>
        <mxCell id="0" />
        <mxCell id="1" parent="0" />
        <mxCell id="ttUdd8dSdeUeU8xcP9qZ-1" value="" style="rounded=1;whiteSpace=wrap;html=1;fillColor=#FFFBE2;strokeColor=#d6b656;" parent="1" vertex="1">
          <mxGeometry x="143" y="75" width="580" height="510" as="geometry" />
        </mxCell>
        <mxCell id="ttUdd8dSdeUeU8xcP9qZ-2" value="Cliente" style="shape=umlActor;verticalLabelPosition=bottom;verticalAlign=top;html=1;outlineConnect=0;rounded=1;" parent="1" vertex="1">
          <mxGeometry x="29" y="300" width="30" height="60" as="geometry" />
        </mxCell>
        <mxCell id="ttUdd8dSdeUeU8xcP9qZ-3" value="Banco" style="shape=umlActor;verticalLabelPosition=bottom;verticalAlign=top;html=1;outlineConnect=0;rounded=1;" parent="1" vertex="1">
          <mxGeometry x="769" y="300" width="30" height="60" as="geometry" />
        </mxCell>
        <mxCell id="ttUdd8dSdeUeU8xcP9qZ-4" value="CU_01_Consultar_saldo" style="ellipse;whiteSpace=wrap;html=1;rounded=1;" parent="1" vertex="1">
          <mxGeometry x="189" y="160" width="150" height="80" as="geometry" />
        </mxCell>
        <mxCell id="ttUdd8dSdeUeU8xcP9qZ-5" value="CU_02_Depositar_dinero" style="ellipse;whiteSpace=wrap;html=1;rounded=1;" parent="1" vertex="1">
          <mxGeometry x="199" y="290" width="150" height="80" as="geometry" />
        </mxCell>
        <mxCell id="ttUdd8dSdeUeU8xcP9qZ-6" value="CU_03_Retirar_dinero" style="ellipse;whiteSpace=wrap;html=1;rounded=1;" parent="1" vertex="1">
          <mxGeometry x="199" y="420" width="160" height="80" as="geometry" />
        </mxCell>
        <mxCell id="ttUdd8dSdeUeU8xcP9qZ-7" value="CU_1.1_Validar_tarjeta" style="ellipse;whiteSpace=wrap;html=1;rounded=1;" parent="1" vertex="1">
          <mxGeometry x="479" y="290" width="190" height="80" as="geometry" />
        </mxCell>
        <mxCell id="ttUdd8dSdeUeU8xcP9qZ-9" value="&amp;lt;&amp;lt;Include&amp;gt;&amp;gt;" style="endArrow=open;endSize=12;dashed=1;html=1;rounded=1;" parent="1" source="ttUdd8dSdeUeU8xcP9qZ-4" target="ttUdd8dSdeUeU8xcP9qZ-7" edge="1">
          <mxGeometry width="160" relative="1" as="geometry">
            <mxPoint x="353" y="210" as="sourcePoint" />
            <mxPoint x="513" y="210" as="targetPoint" />
          </mxGeometry>
        </mxCell>
        <mxCell id="ttUdd8dSdeUeU8xcP9qZ-14" value="&amp;lt;&amp;lt;Include&amp;gt;&amp;gt;" style="endArrow=open;endSize=12;dashed=1;html=1;rounded=1;exitX=1;exitY=0.5;exitDx=0;exitDy=0;" parent="1" source="ttUdd8dSdeUeU8xcP9qZ-6" target="ttUdd8dSdeUeU8xcP9qZ-7" edge="1">
          <mxGeometry width="160" relative="1" as="geometry">
            <mxPoint x="306" y="235" as="sourcePoint" />
            <mxPoint x="462" y="315" as="targetPoint" />
          </mxGeometry>
        </mxCell>
        <mxCell id="ttUdd8dSdeUeU8xcP9qZ-15" value="&amp;lt;&amp;lt;Include&amp;gt;&amp;gt;" style="endArrow=open;endSize=12;dashed=1;html=1;rounded=1;exitX=1;exitY=0.5;exitDx=0;exitDy=0;" parent="1" source="ttUdd8dSdeUeU8xcP9qZ-5" target="ttUdd8dSdeUeU8xcP9qZ-7" edge="1">
          <mxGeometry width="160" relative="1" as="geometry">
            <mxPoint x="306" y="235" as="sourcePoint" />
            <mxPoint x="462" y="315" as="targetPoint" />
          </mxGeometry>
        </mxCell>
        <mxCell id="ttUdd8dSdeUeU8xcP9qZ-20" value="CU_1.2_Mostrar_saldo_insuficiente" style="ellipse;whiteSpace=wrap;html=1;rounded=1;" parent="1" vertex="1">
          <mxGeometry x="469" y="450" width="210" height="80" as="geometry" />
        </mxCell>
        <mxCell id="ttUdd8dSdeUeU8xcP9qZ-22" value="&amp;lt;&amp;lt;Extend&amp;gt;&amp;gt;" style="endArrow=open;endSize=12;dashed=1;html=1;rounded=1;entryX=0;entryY=0.5;entryDx=0;entryDy=0;exitX=1;exitY=1;exitDx=0;exitDy=0;" parent="1" source="ttUdd8dSdeUeU8xcP9qZ-6" target="ttUdd8dSdeUeU8xcP9qZ-20" edge="1">
          <mxGeometry width="160" relative="1" as="geometry">
            <mxPoint x="319" y="470" as="sourcePoint" />
            <mxPoint x="509" y="380" as="targetPoint" />
          </mxGeometry>
        </mxCell>
        <mxCell id="ttUdd8dSdeUeU8xcP9qZ-23" value="" style="endArrow=open;endFill=1;endSize=12;html=1;rounded=1;entryX=0;entryY=0.5;entryDx=0;entryDy=0;exitX=1;exitY=0.3333333333333333;exitDx=0;exitDy=0;exitPerimeter=0;" parent="1" source="ttUdd8dSdeUeU8xcP9qZ-2" target="ttUdd8dSdeUeU8xcP9qZ-4" edge="1">
          <mxGeometry width="160" relative="1" as="geometry">
            <mxPoint x="-1" y="310" as="sourcePoint" />
            <mxPoint x="509" y="330" as="targetPoint" />
          </mxGeometry>
        </mxCell>
        <mxCell id="ttUdd8dSdeUeU8xcP9qZ-24" value="" style="endArrow=open;endFill=1;endSize=12;html=1;rounded=1;" parent="1" target="ttUdd8dSdeUeU8xcP9qZ-5" edge="1">
          <mxGeometry width="160" relative="1" as="geometry">
            <mxPoint x="49" y="331" as="sourcePoint" />
            <mxPoint x="249" y="210" as="targetPoint" />
          </mxGeometry>
        </mxCell>
        <mxCell id="ttUdd8dSdeUeU8xcP9qZ-25" value="" style="endArrow=open;endFill=1;endSize=12;html=1;rounded=1;entryX=0;entryY=0.5;entryDx=0;entryDy=0;" parent="1" source="ttUdd8dSdeUeU8xcP9qZ-2" target="ttUdd8dSdeUeU8xcP9qZ-6" edge="1">
          <mxGeometry width="160" relative="1" as="geometry">
            <mxPoint x="9" y="341" as="sourcePoint" />
            <mxPoint x="229" y="340" as="targetPoint" />
          </mxGeometry>
        </mxCell>
        <mxCell id="ttUdd8dSdeUeU8xcP9qZ-26" value="" style="endArrow=open;endFill=1;endSize=12;html=1;rounded=1;entryX=1;entryY=0.5;entryDx=0;entryDy=0;" parent="1" source="ttUdd8dSdeUeU8xcP9qZ-3" target="ttUdd8dSdeUeU8xcP9qZ-7" edge="1">
          <mxGeometry width="160" relative="1" as="geometry">
            <mxPoint x="349" y="330" as="sourcePoint" />
            <mxPoint x="509" y="330" as="targetPoint" />
          </mxGeometry>
        </mxCell>
        <mxCell id="ttUdd8dSdeUeU8xcP9qZ-28" value="Sistema de Cajero Automático" style="text;html=1;align=center;verticalAlign=middle;whiteSpace=wrap;rounded=1;fontSize=28;" parent="1" vertex="1">
          <mxGeometry x="235" y="40" width="396" height="30" as="geometry" />
        </mxCell>
      </root>
    </mxGraphModel>
  </diagram>
  <diagram id="ID-pfg-0CIK3NJeACheI" name="Página-2">
    <mxGraphModel dx="1194" dy="509" grid="1" gridSize="10" guides="1" tooltips="1" connect="1" arrows="1" fold="1" page="1" pageScale="1" pageWidth="850" pageHeight="1100" math="0" shadow="0">
      <root>
        <mxCell id="0" />
        <mxCell id="1" parent="0" />
        <mxCell id="KKByUNOpXDfteHAS3HLk-1" value="Cliente" style="shape=umlActor;verticalLabelPosition=bottom;verticalAlign=top;html=1;outlineConnect=0;rounded=1;" vertex="1" parent="1">
          <mxGeometry x="40" y="180" width="30" height="60" as="geometry" />
        </mxCell>
        <mxCell id="KKByUNOpXDfteHAS3HLk-2" value="CU_01_Consultar_saldo" style="ellipse;whiteSpace=wrap;html=1;rounded=1;" vertex="1" parent="1">
          <mxGeometry x="200" y="40" width="150" height="80" as="geometry" />
        </mxCell>
        <mxCell id="KKByUNOpXDfteHAS3HLk-3" value="" style="endArrow=open;endFill=1;endSize=12;html=1;rounded=1;entryX=0;entryY=0.5;entryDx=0;entryDy=0;exitX=1;exitY=0.3333333333333333;exitDx=0;exitDy=0;exitPerimeter=0;" edge="1" parent="1" source="KKByUNOpXDfteHAS3HLk-1" target="KKByUNOpXDfteHAS3HLk-2">
          <mxGeometry width="160" relative="1" as="geometry">
            <mxPoint x="10" y="190" as="sourcePoint" />
            <mxPoint x="520" y="210" as="targetPoint" />
          </mxGeometry>
        </mxCell>
      </root>
    </mxGraphModel>
  </diagram>
</mxfile>
